<svg width="30.000000" height="30.000000" viewBox="0 0 30 30" fill="none" xmlns="http://www.w3.org/2000/svg" xmlns:xlink="http://www.w3.org/1999/xlink">
	<desc>
			Created with Pixso.
	</desc>
	<defs/>
	<path id="Vector" d="M15 27.49C21.9 27.49 27.5 21.9 27.5 14.99C27.5 8.09 21.9 2.49 15 2.49C8.09 2.49 2.5 8.09 2.5 14.99C2.5 21.9 8.09 27.49 15 27.49Z" fill="#FFFFFF" fill-opacity="1.000000" fill-rule="nonzero"/>
	<path id="Vector" d="M15 27.49C8.09 27.49 2.5 21.9 2.5 14.99C2.5 8.09 8.09 2.49 15 2.49C21.9 2.49 27.5 8.09 27.5 14.99C27.5 21.9 21.9 27.49 15 27.49Z" stroke="#D7D7D7" stroke-opacity="0" stroke-width="3.000000" stroke-linejoin="round"/>
	<path id="Vector" d="M15 27.49C8.09 27.49 2.5 21.9 2.5 14.99C2.5 8.09 8.09 2.49 15 2.49C21.9 2.49 27.5 8.09 27.5 14.99C27.5 21.9 21.9 27.49 15 27.49Z" stroke="#175DF7" stroke-opacity="1.000000" stroke-width="3.000000" stroke-linejoin="round"/>
	<path id="Vector" d="M16.57 19.41L12.17 14.99L16.57 10.58" stroke="#175DF7" stroke-opacity="1.000000" stroke-width="2.000000" stroke-linejoin="round" stroke-linecap="round"/>
	<g opacity="0.000000"/>
</svg>
