<svg width="103.102295" height="40.000000" viewBox="0 0 103.102 40" fill="none" xmlns="http://www.w3.org/2000/svg" xmlns:xlink="http://www.w3.org/1999/xlink">
	<desc>
			Created with Pixso.
	</desc>
	<defs>
		<clipPath id="clip2_16">
			<rect id="Logotype 1" rx="-0.500000" width="102.102325" height="39.000000" transform="translate(0.500000 0.500000)" fill="white" fill-opacity="0"/>
		</clipPath>
	</defs>
	<rect id="Logotype 1" rx="-0.500000" width="102.102325" height="39.000000" transform="translate(0.500000 0.500000)" fill="#FFFFFF" fill-opacity="0"/>
	<g clip-path="url(#clip2_16)">
		<path id="Vector" d="M12.06 16.47C13.32 16.47 14.32 16.88 15.07 17.69C15.82 18.51 16.19 19.6 16.19 20.97L16.19 27.69L13.37 27.69L13.37 21.16C13.37 20.51 13.21 20 12.89 19.64C12.57 19.27 12.12 19.09 11.54 19.09C10.9 19.09 10.4 19.3 10.05 19.72C9.69 20.14 9.51 20.76 9.51 21.56L9.51 27.69L6.7 27.69L6.7 21.16C6.7 20.51 6.54 20 6.22 19.64C5.9 19.27 5.45 19.09 4.86 19.09C4.24 19.09 3.74 19.3 3.37 19.72C3 20.14 2.81 20.76 2.81 21.56L2.81 27.69L0 27.69L0 16.78L2.81 16.78L2.81 17.93C3.46 16.96 4.48 16.47 5.84 16.47C7.21 16.47 8.17 16.99 8.81 18.04C9.54 16.99 10.62 16.47 12.06 16.47L12.06 16.47Z" fill="#FFFFFF" fill-opacity="1.000000" fill-rule="nonzero"/>
		<path id="Vector" d="M18.68 15.47C18.21 15.47 17.81 15.29 17.47 14.95C17.13 14.61 16.95 14.21 16.95 13.74C16.95 13.28 17.13 12.87 17.47 12.52C17.81 12.17 18.21 12 18.68 12C19.14 12 19.57 12.17 19.91 12.52C20.25 12.87 20.42 13.28 20.42 13.74C20.42 14.21 20.25 14.61 19.91 14.95C19.57 15.29 19.16 15.47 18.68 15.47ZM17.28 27.69L17.28 16.78L20.1 16.78L20.1 27.69L17.28 27.69Z" fill="#FFFFFF" fill-opacity="1.000000" fill-rule="nonzero"/>
		<path id="Vector" d="M26.95 27.99C25.3 27.99 23.93 27.44 22.84 26.33C21.74 25.23 21.19 23.86 21.19 22.23C21.19 20.6 21.74 19.23 22.84 18.13C23.93 17.02 25.3 16.47 26.95 16.47C28.01 16.47 28.98 16.72 29.85 17.23C30.73 17.74 31.39 18.43 31.84 19.29L29.42 20.7C29.2 20.25 28.87 19.9 28.42 19.64C27.98 19.37 27.48 19.24 26.93 19.24C26.08 19.24 25.38 19.52 24.83 20.08C24.28 20.64 24 21.36 24 22.23C24 23.11 24.28 23.8 24.83 24.36C25.39 24.92 26.08 25.2 26.93 25.2C27.5 25.2 28 25.07 28.44 24.82C28.89 24.56 29.22 24.21 29.44 23.76L31.88 25.16C31.4 26.01 30.73 26.7 29.85 27.22C28.98 27.74 28.01 27.99 26.95 27.99L26.95 27.99Z" fill="#FFFFFF" fill-opacity="1.000000" fill-rule="nonzero"/>
		<path id="Vector" d="M35.57 18.65C35.83 17.95 36.27 17.43 36.87 17.08C37.47 16.73 38.15 16.56 38.89 16.56L38.89 19.7C38.03 19.6 37.26 19.77 36.58 20.22C35.91 20.68 35.57 21.42 35.57 22.47L35.57 27.69L32.75 27.69L32.75 16.78L35.57 16.78L35.57 18.65L35.57 18.65Z" fill="#FFFFFF" fill-opacity="1.000000" fill-rule="nonzero"/>
		<path id="Vector" d="M49.28 26.33C48.16 27.44 46.79 28 45.17 28C43.56 28 42.19 27.44 41.08 26.33C39.97 25.21 39.41 23.85 39.41 22.23C39.41 20.62 39.97 19.25 41.08 18.14C42.19 17.03 43.56 16.47 45.17 16.47C46.79 16.47 48.16 17.03 49.28 18.14C50.4 19.25 50.96 20.62 50.96 22.23C50.96 23.85 50.4 25.21 49.28 26.33ZM43.07 24.39C43.63 24.96 44.33 25.24 45.17 25.24C46.02 25.24 46.72 24.96 47.29 24.39C47.86 23.83 48.14 23.11 48.14 22.23C48.14 21.36 47.86 20.64 47.29 20.07C46.72 19.5 46.02 19.22 45.17 19.22C44.33 19.22 43.63 19.5 43.07 20.07C42.51 20.64 42.23 21.36 42.23 22.23C42.23 23.11 42.51 23.83 43.07 24.39Z" fill="#FFFFFF" fill-opacity="1.000000" fill-rule="nonzero"/>
		<path id="Vector" d="M64.03 16.47C65.28 16.47 66.28 16.88 67.03 17.69C67.78 18.51 68.16 19.6 68.16 20.97L68.16 27.69L65.34 27.69L65.34 21.16C65.34 20.51 65.18 20 64.86 19.64C64.54 19.27 64.09 19.09 63.51 19.09C62.87 19.09 62.37 19.3 62.01 19.72C61.66 20.14 61.48 20.76 61.48 21.56L61.48 27.69L58.66 27.69L58.66 21.16C58.66 20.51 58.5 20 58.18 19.64C57.86 19.27 57.41 19.09 56.83 19.09C56.2 19.09 55.7 19.3 55.33 19.72C54.96 20.14 54.78 20.76 54.78 21.56L54.78 27.69L51.96 27.69L51.96 16.78L54.78 16.78L54.78 17.93C55.43 16.96 56.44 16.47 57.81 16.47C59.18 16.47 60.14 16.99 60.78 18.04C61.51 16.99 62.59 16.47 64.03 16.47L64.03 16.47Z" fill="#FFFFFF" fill-opacity="1.000000" fill-rule="nonzero"/>
		<path id="Vector" d="M77.87 16.78L80.68 16.78L80.68 27.69L77.87 27.69L77.87 26.4C77.02 27.46 75.84 27.99 74.31 27.99C72.78 27.99 71.61 27.44 70.57 26.32C69.53 25.21 69.01 23.85 69.01 22.23C69.01 20.62 69.53 19.25 70.57 18.14C71.61 17.03 72.86 16.47 74.31 16.47C75.84 16.47 77.02 17 77.87 18.06L77.87 16.78L77.87 16.78ZM72.67 24.45C73.24 25.02 73.96 25.31 74.83 25.31C75.71 25.31 76.43 25.02 77.01 24.45C77.58 23.87 77.87 23.13 77.87 22.23C77.87 21.33 77.58 20.59 77.01 20.02C76.43 19.44 75.71 19.15 74.83 19.15C73.96 19.15 73.24 19.44 72.67 20.02C72.11 20.59 71.82 21.33 71.82 22.23C71.82 23.13 72.11 23.87 72.67 24.45Z" fill="#FFFFFF" fill-opacity="1.000000" fill-rule="nonzero"/>
		<path id="Vector" d="M84.59 18.65C84.85 17.95 85.28 17.43 85.89 17.08C86.49 16.73 87.17 16.56 87.91 16.56L87.91 19.7C87.05 19.6 86.28 19.77 85.6 20.22C84.93 20.68 84.59 21.42 84.59 22.47L84.59 27.69L81.77 27.69L81.77 16.78L84.59 16.78L84.59 18.65L84.59 18.65Z" fill="#FFFFFF" fill-opacity="1.000000" fill-rule="nonzero"/>
		<path id="Vector" d="M90.4 15.47C89.93 15.47 89.53 15.29 89.18 14.95C88.84 14.61 88.67 14.21 88.67 13.74C88.67 13.28 88.84 12.87 89.18 12.52C89.53 12.17 89.93 12 90.4 12C90.86 12 91.29 12.17 91.63 12.52C91.97 12.87 92.14 13.28 92.14 13.74C92.14 14.21 91.97 14.61 91.63 14.95C91.29 15.29 90.88 15.47 90.4 15.47ZM89 27.69L89 16.78L91.81 16.78L91.81 27.69L89 27.69Z" fill="#FFFFFF" fill-opacity="1.000000" fill-rule="nonzero"/>
		<path id="Vector" d="M98.97 16.47C100.17 16.47 101.15 16.87 101.93 17.67C102.71 18.47 103.1 19.58 103.1 20.99L103.1 27.69L100.28 27.69L100.28 21.34C100.28 20.61 100.09 20.05 99.69 19.67C99.3 19.28 98.78 19.09 98.12 19.09C97.39 19.09 96.81 19.32 96.38 19.77C95.94 20.22 95.72 20.89 95.72 21.8L95.72 27.69L92.91 27.69L92.91 16.78L95.72 16.78L95.72 18C96.4 16.98 97.49 16.47 98.97 16.47L98.97 16.47Z" fill="#FFFFFF" fill-opacity="1.000000" fill-rule="nonzero"/>
	</g>
</svg>
