<svg width="40.000000" height="40.000000" viewBox="0 0 40 40" fill="none" xmlns="http://www.w3.org/2000/svg" xmlns:xlink="http://www.w3.org/1999/xlink">
	<desc>
			Created with Pixso.
	</desc>
	<defs>
		<clipPath id="clip2_11">
			<rect id="logo" rx="-0.500000" width="39.000000" height="39.000000" transform="translate(0.500000 0.500000)" fill="white" fill-opacity="0"/>
		</clipPath>
	</defs>
	<g clip-path="url(#clip2_11)">
		<path id="Vector" d="M35.89 17.04C35.82 18.1 34.95 19.37 33.99 19.81C32.59 20.46 31.02 20.07 30.07 18.97L30.03 18.93C29.94 18.85 29.85 18.76 29.78 18.67L29.73 18.62C29.64 18.53 29.55 18.45 29.48 18.35L29.43 18.31C29.34 18.23 29.25 18.14 29.18 18.05L29.13 18C29.04 17.92 28.95 17.83 28.88 17.74L28.83 17.69C28.74 17.61 28.66 17.52 28.58 17.43L28.53 17.38C28.44 17.3 28.36 17.21 28.28 17.12L28.23 17.07C28.14 16.99 28.06 16.9 27.98 16.81L27.93 16.76C27.89 16.73 27.86 16.7 27.83 16.66C27.42 16.3 26.88 16.08 26.29 16.08C25.67 16.08 25.1 16.33 24.69 16.73C24.67 16.74 24.66 16.75 24.65 16.76L24.6 16.81C24.52 16.9 24.44 16.99 24.35 17.07L24.3 17.12C24.23 17.21 24.14 17.3 24.05 17.38L24 17.43C23.93 17.52 23.84 17.61 23.75 17.69L23.7 17.74C23.62 17.83 23.54 17.92 23.45 18L23.41 18.05C23.32 18.14 23.24 18.23 23.15 18.31L23.11 18.36C23.02 18.45 22.94 18.54 22.85 18.62L22.8 18.67C22.72 18.76 22.64 18.85 22.55 18.93L22.5 18.98C21.87 19.71 20.96 20.13 20 20.13C19.03 20.13 18.12 19.71 17.49 18.98L17.44 18.92C17.35 18.85 17.27 18.76 17.19 18.67L17.14 18.62C17.05 18.53 16.97 18.45 16.89 18.36L16.84 18.31C16.75 18.23 16.67 18.14 16.59 18.05L16.54 18C16.45 17.92 16.37 17.83 16.29 17.74L16.24 17.69C16.15 17.61 16.07 17.52 15.99 17.43L15.94 17.38C15.85 17.3 15.77 17.21 15.69 17.12L15.64 17.07C15.56 16.99 15.47 16.9 15.39 16.81L15.34 16.76C15.34 16.76 15.34 16.76 15.34 16.76L15.34 16.76C15.32 16.75 15.31 16.73 15.29 16.71C15.28 16.7 15.27 16.7 15.26 16.69C14.85 16.31 14.3 16.08 13.7 16.08C13.1 16.08 12.6 16.29 12.2 16.64C12.19 16.65 12.19 16.65 12.18 16.65C12.14 16.69 12.11 16.73 12.07 16.77L12.02 16.81C11.94 16.9 11.86 16.99 11.77 17.07L11.72 17.12C11.64 17.21 11.56 17.3 11.47 17.38L11.42 17.43C11.34 17.52 11.26 17.61 11.17 17.69L11.12 17.74C11.04 17.83 10.96 17.92 10.87 18L10.82 18.05C10.75 18.14 10.66 18.23 10.57 18.31L10.52 18.36C10.45 18.45 10.36 18.54 10.27 18.62L10.23 18.67C10.15 18.76 10.06 18.85 9.97 18.93L9.93 18.98C8.98 20.07 7.42 20.46 6.01 19.82C5.04 19.38 4.18 18.1 4.1 17.04C4.03 16.02 4.41 15.07 5.15 14.38L5.2 14.33C5.28 14.24 5.37 14.15 5.45 14.07L5.5 14.02C5.58 13.93 5.66 13.84 5.76 13.76L5.8 13.71C5.88 13.62 5.96 13.53 6.05 13.45L6.1 13.4C6.18 13.31 6.26 13.22 6.35 13.14L6.4 13.09C6.48 13 6.56 12.92 6.65 12.83L6.7 12.78C6.78 12.69 6.86 12.6 6.95 12.52L7 12.47C7.08 12.38 7.16 12.3 7.25 12.21L7.3 12.17C7.38 12.07 7.47 11.99 7.55 11.91L7.6 11.85C7.68 11.76 7.76 11.68 7.85 11.59L7.9 11.55C7.98 11.46 8.06 11.37 8.15 11.29L8.2 11.24C8.28 11.15 8.36 11.06 8.45 10.98L8.5 10.93C8.58 10.83 8.66 10.75 8.75 10.67L8.8 10.62C8.88 10.53 8.96 10.44 9.05 10.36L9.1 10.31C9.17 10.22 9.26 10.13 9.35 10.05L9.4 10C9.47 9.91 9.56 9.82 9.65 9.74L9.7 9.69C9.77 9.6 9.86 9.51 9.95 9.43L9.99 9.38C10.07 9.29 10.16 9.2 10.25 9.12L10.29 9.07C10.38 8.98 10.46 8.89 10.54 8.81L10.59 8.77C10.67 8.67 10.76 8.59 10.84 8.5L10.89 8.45C10.97 8.36 11.06 8.27 11.14 8.19L11.19 8.14C11.83 7.41 12.74 7 13.71 7C14.67 7 15.58 7.41 16.21 8.14L16.26 8.19C16.35 8.27 16.43 8.36 16.51 8.45L16.56 8.5C16.65 8.59 16.74 8.67 16.81 8.77L16.86 8.81C16.95 8.89 17.03 8.98 17.11 9.07L17.16 9.12C17.25 9.2 17.33 9.29 17.41 9.38L17.46 9.43C17.55 9.51 17.63 9.6 17.71 9.69L17.76 9.74C17.84 9.82 17.93 9.91 18.01 10L18.06 10.05C18.14 10.13 18.23 10.22 18.31 10.31L18.36 10.36L18.36 10.36C18.38 10.39 18.41 10.41 18.44 10.44C18.85 10.81 19.4 11.04 20 11.04C20.6 11.04 21.18 10.79 21.6 10.39C21.63 10.36 21.66 10.33 21.68 10.31C21.76 10.22 21.85 10.13 21.93 10.05L21.98 10C22.06 9.91 22.14 9.82 22.24 9.74L22.28 9.69C22.36 9.6 22.44 9.51 22.53 9.43L22.58 9.38C22.66 9.29 22.74 9.2 22.83 9.12L22.88 9.07C22.96 8.98 23.05 8.9 23.13 8.81L23.18 8.76C23.26 8.67 23.35 8.58 23.43 8.5L23.48 8.45C23.56 8.36 23.64 8.28 23.73 8.19L23.78 8.14C24.41 7.41 25.33 7 26.29 7C27.25 7 28.16 7.41 28.8 8.15L28.84 8.19C28.93 8.28 29.02 8.36 29.09 8.45L29.14 8.5C29.24 8.59 29.32 8.67 29.39 8.76L29.44 8.81C29.53 8.9 29.62 8.98 29.69 9.07L29.74 9.12C29.83 9.2 29.91 9.29 29.99 9.38L30.04 9.43C30.13 9.51 30.21 9.6 30.3 9.69L30.34 9.74C30.43 9.83 30.51 9.91 30.6 10L30.64 10.05C30.73 10.14 30.81 10.22 30.89 10.31L30.94 10.36C31.03 10.44 31.11 10.53 31.19 10.62L31.24 10.67C31.33 10.75 31.41 10.84 31.49 10.93L31.54 10.98C31.63 11.06 31.71 11.15 31.79 11.24L31.84 11.29C31.93 11.37 32.02 11.46 32.09 11.55L32.14 11.6C32.23 11.68 32.31 11.77 32.39 11.86L32.44 11.91C32.53 11.99 32.61 12.08 32.69 12.17L32.74 12.22C32.83 12.3 32.91 12.39 32.99 12.48L33.04 12.52C33.12 12.61 33.21 12.69 33.29 12.78L33.34 12.84C33.42 12.92 33.51 13.01 33.59 13.09L33.63 13.14C33.72 13.23 33.81 13.31 33.89 13.4L33.94 13.45C34.03 13.54 34.11 13.62 34.19 13.71L34.23 13.76C34.32 13.84 34.41 13.93 34.49 14.02L34.53 14.07C34.62 14.16 34.71 14.24 34.79 14.33L34.83 14.38C35.57 15.07 35.96 16.03 35.89 17.04L35.89 17.04Z" fill="#FFFFFF" fill-opacity="1.000000" fill-rule="nonzero"/>
		<path id="Vector" d="M35.89 29.91C35.82 30.96 34.95 32.24 33.99 32.68C32.59 33.32 31.02 32.94 30.07 31.84L30.03 31.8C29.94 31.71 29.85 31.63 29.77 31.53L29.73 31.48C29.64 31.4 29.55 31.31 29.48 31.22L29.43 31.18C29.33 31.09 29.25 31.01 29.17 30.91L29.13 30.87C29.04 30.79 28.95 30.7 28.88 30.61L28.83 30.56C28.74 30.47 28.66 30.39 28.58 30.3L28.53 30.25C28.44 30.17 28.36 30.08 28.28 29.99L28.23 29.94C28.14 29.86 28.06 29.77 27.98 29.68L27.93 29.63C27.89 29.6 27.86 29.56 27.83 29.53C27.42 29.17 26.88 28.95 26.29 28.95C25.67 28.95 25.1 29.2 24.69 29.6C24.67 29.61 24.66 29.62 24.65 29.63L24.6 29.68C24.52 29.77 24.44 29.86 24.35 29.94L24.3 29.99C24.22 30.08 24.14 30.17 24.05 30.25L24 30.3C23.93 30.39 23.84 30.48 23.75 30.56L23.7 30.61C23.62 30.7 23.54 30.79 23.45 30.87L23.41 30.92C23.32 31.01 23.24 31.09 23.15 31.18L23.11 31.23C23.02 31.32 22.94 31.41 22.85 31.49L22.8 31.54C22.72 31.63 22.64 31.71 22.55 31.8L22.5 31.84C21.87 32.58 20.96 32.99 20 32.99C19.03 32.99 18.12 32.58 17.49 31.84L17.44 31.79C17.35 31.71 17.27 31.63 17.19 31.54L17.14 31.48C17.05 31.4 16.97 31.31 16.89 31.22L16.84 31.18C16.75 31.09 16.67 31.01 16.59 30.92L16.54 30.87C16.45 30.79 16.37 30.7 16.29 30.61L16.24 30.56C16.15 30.47 16.07 30.39 15.99 30.3L15.94 30.25C15.85 30.17 15.77 30.08 15.69 29.99L15.64 29.94C15.56 29.86 15.47 29.77 15.39 29.68L15.34 29.63C15.34 29.63 15.34 29.63 15.34 29.63L15.34 29.63C15.32 29.61 15.31 29.6 15.29 29.58C15.28 29.57 15.27 29.56 15.26 29.55C14.85 29.18 14.3 28.95 13.7 28.95C13.1 28.95 12.6 29.16 12.2 29.51C12.19 29.51 12.19 29.52 12.18 29.52C12.14 29.56 12.11 29.6 12.07 29.63L12.02 29.68C11.94 29.77 11.85 29.86 11.77 29.94L11.72 29.99C11.64 30.08 11.55 30.17 11.47 30.25L11.42 30.3C11.34 30.39 11.26 30.47 11.17 30.56L11.12 30.61C11.04 30.7 10.96 30.79 10.87 30.87L10.82 30.92C10.74 31.01 10.66 31.1 10.57 31.18L10.52 31.22C10.45 31.32 10.36 31.4 10.27 31.49L10.22 31.54C10.15 31.63 10.06 31.72 9.97 31.8L9.93 31.84C8.98 32.94 7.42 33.33 6.01 32.68C5.05 32.25 4.18 30.97 4.11 29.92C4.03 28.9 4.42 27.94 5.16 27.25L5.21 27.2C5.29 27.11 5.37 27.02 5.46 26.94L5.51 26.89C5.59 26.8 5.67 26.71 5.76 26.63L5.81 26.58C5.89 26.49 5.97 26.4 6.06 26.32L6.11 26.27C6.18 26.18 6.27 26.09 6.36 26.01L6.41 25.96C6.48 25.87 6.57 25.79 6.66 25.7L6.7 25.65C6.78 25.56 6.87 25.47 6.96 25.39L7 25.34C7.08 25.25 7.16 25.17 7.26 25.08L7.3 25.04C7.38 24.94 7.47 24.86 7.56 24.78L7.6 24.72C7.68 24.63 7.77 24.55 7.85 24.46L7.9 24.42C7.98 24.33 8.07 24.24 8.15 24.16L8.2 24.11C8.28 24.02 8.37 23.93 8.45 23.85L8.5 23.8C8.58 23.7 8.67 23.62 8.75 23.54L8.8 23.49C8.88 23.4 8.97 23.31 9.05 23.23L9.1 23.18C9.18 23.09 9.26 23 9.35 22.92L9.4 22.87C9.48 22.78 9.56 22.69 9.65 22.61L9.7 22.56C9.78 22.47 9.86 22.38 9.95 22.3L10 22.25C10.07 22.16 10.16 22.07 10.25 21.99L10.3 21.94C10.38 21.85 10.46 21.76 10.55 21.68L10.6 21.64C10.67 21.54 10.76 21.46 10.85 21.37L10.9 21.32C10.98 21.23 11.06 21.14 11.15 21.06L11.19 21.01C11.83 20.28 12.74 19.87 13.71 19.87C14.67 19.87 15.58 20.28 16.21 21.01L16.26 21.06C16.35 21.14 16.43 21.23 16.51 21.32L16.56 21.37C16.65 21.46 16.74 21.54 16.81 21.64L16.86 21.68C16.95 21.76 17.03 21.85 17.11 21.94L17.16 21.99C17.25 22.07 17.33 22.16 17.41 22.25L17.46 22.3C17.55 22.38 17.63 22.47 17.71 22.56L17.76 22.61C17.85 22.69 17.93 22.78 18.01 22.87L18.06 22.92C18.14 23 18.23 23.09 18.31 23.18L18.36 23.23L18.36 23.23C18.39 23.26 18.41 23.28 18.44 23.31C18.85 23.68 19.4 23.91 20 23.91C20.6 23.91 21.19 23.66 21.6 23.26C21.63 23.23 21.66 23.2 21.68 23.18C21.76 23.09 21.85 23 21.93 22.92L21.98 22.87C22.06 22.78 22.14 22.69 22.24 22.61L22.28 22.56C22.36 22.47 22.44 22.38 22.54 22.3L22.58 22.25C22.66 22.16 22.74 22.07 22.83 21.99L22.88 21.94C22.96 21.85 23.05 21.77 23.13 21.68L23.18 21.63C23.26 21.54 23.35 21.45 23.43 21.37L23.48 21.32C23.56 21.23 23.65 21.15 23.73 21.06L23.78 21.01C24.41 20.28 25.33 19.87 26.29 19.87C27.25 19.87 28.16 20.28 28.8 21.02L28.84 21.06C28.93 21.15 29.02 21.23 29.09 21.32L29.14 21.37C29.24 21.46 29.32 21.54 29.39 21.63L29.44 21.68C29.53 21.77 29.62 21.85 29.69 21.94L29.74 21.99C29.83 22.07 29.92 22.16 29.99 22.25L30.04 22.3C30.13 22.38 30.21 22.47 30.3 22.56L30.34 22.61C30.43 22.7 30.51 22.78 30.6 22.87L30.64 22.92C30.73 23.01 30.81 23.09 30.9 23.18L30.94 23.23C31.03 23.31 31.11 23.4 31.19 23.49L31.24 23.54C31.33 23.62 31.41 23.71 31.49 23.8L31.54 23.85C31.63 23.93 31.71 24.02 31.79 24.11L31.84 24.16C31.93 24.24 32.02 24.33 32.09 24.42L32.14 24.47C32.23 24.55 32.31 24.64 32.39 24.73L32.44 24.78C32.53 24.86 32.61 24.95 32.69 25.04L32.74 25.09C32.83 25.17 32.91 25.26 32.99 25.35L33.04 25.4C33.13 25.48 33.21 25.56 33.29 25.65L33.34 25.71C33.42 25.79 33.51 25.88 33.59 25.96L33.64 26.02C33.72 26.1 33.81 26.18 33.89 26.27L33.94 26.32C34.03 26.41 34.11 26.49 34.19 26.58L34.24 26.63C34.32 26.71 34.41 26.8 34.49 26.89L34.53 26.94C34.62 27.03 34.71 27.11 34.79 27.2L34.83 27.25C35.58 27.94 35.96 28.9 35.89 29.91L35.89 29.91Z" fill="#FFFFFF" fill-opacity="1.000000" fill-rule="nonzero"/>
	</g>
</svg>
