<svg width="24.000000" height="24.000000" viewBox="0 0 24 24" fill="none" xmlns="http://www.w3.org/2000/svg" xmlns:xlink="http://www.w3.org/1999/xlink">
	<desc>
			Created with Pixso.
	</desc>
	<defs/>
	<path id="Vector" d="M4.99 22C2.99 22 1.99 21 1.99 19L1.99 11C1.99 9 2.99 8 4.99 8L9.99 8L9.99 19C9.99 21 10.99 22 12.99 22L4.99 22Z" stroke="#FFFFFF" stroke-opacity="1.000000" stroke-width="1.500000" stroke-linejoin="round"/>
	<g opacity="0.500000">
		<path id="Vector" d="M9.99 4.99L9.99 7.99L4.99 7.99L4.99 5.99C4.99 4.89 5.89 3.99 6.99 3.99L10.1 3.99C10.02 4.29 9.99 4.62 9.99 4.99Z" stroke="#FFFFFF" stroke-opacity="1.000000" stroke-width="1.500000" stroke-linejoin="round"/>
	</g>
	<g opacity="0.500000">
		<path id="Vector" d="M13.99 8L13.99 13" stroke="#FFFFFF" stroke-opacity="1.000000" stroke-width="1.500000" stroke-linejoin="round" stroke-linecap="round"/>
	</g>
	<g opacity="0.500000">
		<path id="Vector" d="M18 8L18 13" stroke="#FFFFFF" stroke-opacity="1.000000" stroke-width="1.500000" stroke-linejoin="round" stroke-linecap="round"/>
	</g>
	<path id="Vector" d="M14.99 17C14.44 17 13.99 17.45 13.99 18L13.99 22L17.99 22L17.99 18C17.99 17.45 17.54 17 16.99 17L14.99 17Z" stroke="#FFFFFF" stroke-opacity="1.000000" stroke-width="1.500000" stroke-linejoin="round"/>
	<g opacity="0.500000">
		<path id="Vector" d="M6 12.99L6 16.99" stroke="#FFFFFF" stroke-opacity="1.000000" stroke-width="1.500000" stroke-linejoin="round" stroke-linecap="round"/>
	</g>
	<path id="Vector" d="M10 5C10 3 11 2 13 2L19 2C21 2 22 3 22 5L22 19C22 21 21 22 19 22L13 22C11 22 10 21 10 19L10 5Z" stroke="#FFFFFF" stroke-opacity="1.000000" stroke-width="1.500000" stroke-linejoin="round"/>
	<g opacity="0.000000"/>
</svg>
