<svg width="24.000000" height="24.000000" viewBox="0 0 24 24" fill="none" xmlns="http://www.w3.org/2000/svg" xmlns:xlink="http://www.w3.org/1999/xlink">
	<desc>
			Created with Pixso.
	</desc>
	<defs/>
	<path id="Vector" d="M14.97 22C19.96 22 21.97 20 21.97 15L21.97 9C21.97 4 19.96 2 14.97 2L8.96 2C3.96 2 1.96 4 1.96 9L1.96 15C1.96 20 3.96 22 8.96 22L14.97 22Z" stroke="#FFFFFF" stroke-opacity="1.000000" stroke-width="1.500000" stroke-linejoin="round"/>
	<g opacity="0.400000">
		<path id="Vector" d="M1.96 12.7L7.96 12.68C8.71 12.68 9.56 13.25 9.83 13.95L10.98 16.83C11.24 17.48 11.65 17.48 11.91 16.83L14.2 11.02C14.42 10.46 14.83 10.44 15.11 10.97L16.15 12.94C16.45 13.53 17.25 14.01 17.92 14.01L21.98 14.01" stroke="#FFFFFF" stroke-opacity="1.000000" stroke-width="1.500000" stroke-linejoin="round" stroke-linecap="round"/>
	</g>
	<g opacity="0.000000">
		<path id="Vector" d="M0 0L24 0L24 24L0 24L0 0ZM1 23L1 1L23 1L23 23L1 23Z" fill="#FFFFFF" fill-opacity="1.000000" fill-rule="evenodd"/>
	</g>
</svg>
