<svg width="24.000000" height="24.000000" viewBox="0 0 24 24" fill="none" xmlns="http://www.w3.org/2000/svg" xmlns:xlink="http://www.w3.org/1999/xlink">
	<desc>
			Created with Pixso.
	</desc>
	<defs/>
	<path id="Vector" d="M7.99 18.99C3.99 18.99 1.99 17.99 1.99 12.99L1.99 7.99C1.99 3.99 3.99 1.99 7.99 1.99L15.99 1.99C19.99 1.99 21.99 3.99 21.99 7.99L21.99 12.99C21.99 16.99 19.99 18.99 15.99 18.99L15.49 18.99C15.18 18.99 14.88 19.14 14.69 19.39L13.19 21.39C12.53 22.27 11.45 22.27 10.79 21.39L9.29 19.39C9.13 19.17 8.76 18.99 8.49 18.99L7.99 18.99Z" stroke="#292929" stroke-opacity="0.800000" stroke-width="2.000000" stroke-linejoin="round"/>
	<path id="Vector" d="M15.99 11L16 11" stroke="#292929" stroke-opacity="0.800000" stroke-width="2.000000" stroke-linejoin="round" stroke-linecap="round"/>
	<path id="Vector" d="M11.99 11L12 11" stroke="#292929" stroke-opacity="0.800000" stroke-width="2.000000" stroke-linejoin="round" stroke-linecap="round"/>
	<path id="Vector" d="M7.99 11L8 11" stroke="#292929" stroke-opacity="0.800000" stroke-width="2.000000" stroke-linejoin="round" stroke-linecap="round"/>
	<g opacity="0.000000"/>
</svg>
