<svg width="24.000000" height="24.000000" viewBox="0 0 24 24" fill="none" xmlns="http://www.w3.org/2000/svg" xmlns:xlink="http://www.w3.org/1999/xlink">
	<desc>
			Created with Pixso.
	</desc>
	<defs/>
	<path id="Vector" d="M22 8.42C22 10 21 11 19.42 11L16 11L16 4C16 2.89 16.91 2 18.02 2C19.11 2 20.11 2.45 20.83 3.17C21.55 3.89 22 4.89 22 6L22 8.42Z" stroke="#FFFFFF" stroke-opacity="1.000000" stroke-width="1.500000" stroke-linejoin="round"/>
	<path id="Vector" d="M2 21C2 21.83 2.94 22.3 3.59 21.8L5.31 20.52C5.71 20.21 6.27 20.26 6.63 20.62L8.28 22.29C8.67 22.68 9.32 22.68 9.71 22.29L11.39 20.61C11.74 20.26 12.3 20.21 12.69 20.52L14.4 21.8C15.06 22.29 16 21.82 16 21L16 4C16 2.89 16.9 2 18 2L7 2L6 2C3 2 2 3.78 2 6L2 7L2 21Z" stroke="#FFFFFF" stroke-opacity="1.000000" stroke-width="1.500000" stroke-linejoin="round"/>
	<g opacity="0.400000">
		<path id="Vector" d="M6.25 10L11.75 10" stroke="#FFFFFF" stroke-opacity="1.000000" stroke-width="1.500000" stroke-linejoin="round" stroke-linecap="round"/>
	</g>
	<g opacity="0.000000">
		<path id="Vector" d="M0 0L24 0L24 24L0 24L0 0ZM1 23L1 1L23 1L23 23L1 23Z" fill="#FFFFFF" fill-opacity="1.000000" fill-rule="evenodd"/>
	</g>
</svg>
