<svg width="24.000000" height="24.000000" viewBox="0 0 24 24" fill="none" xmlns="http://www.w3.org/2000/svg" xmlns:xlink="http://www.w3.org/1999/xlink">
	<desc>
			Created with Pixso.
	</desc>
	<defs/>
	<path d="M20.5 11.3L20.5 7.04C20.5 3.01 19.56 2 15.78 2L8.21 2C4.44 2 3.5 3.01 3.5 7.04L3.5 18.29C3.5 20.96 4.96 21.59 6.72 19.69L6.73 19.68C7.56 18.81 8.81 18.87 9.52 19.83L10.53 21.18" stroke="#FFFFFF" stroke-opacity="1.000000" stroke-width="1.500000" stroke-linejoin="round" stroke-linecap="round"/>
	<path d="M18 15.5L18 21.5L20 19.5" stroke="#FFFFFF" stroke-opacity="1.000000" stroke-width="1.500000" stroke-linejoin="round" stroke-linecap="round"/>
	<path d="M18 21.5L16 19.5" stroke="#FFFFFF" stroke-opacity="1.000000" stroke-width="1.500000" stroke-linejoin="round" stroke-linecap="round"/>
	<g opacity="0.500000">
		<path d="M8 7L16 7" stroke="#FFFFFF" stroke-opacity="1.000000" stroke-width="1.500000" stroke-linejoin="round" stroke-linecap="round"/>
	</g>
	<g opacity="0.500000">
		<path d="M9 11L15 11" stroke="#FFFFFF" stroke-opacity="1.000000" stroke-width="1.500000" stroke-linejoin="round" stroke-linecap="round"/>
	</g>
	<g opacity="0.000000">
		<path d="M0 0L24 0L24 24L0 24L0 0ZM1 23L1 1L23 1L23 23L1 23Z" fill="#FFFFFF" fill-opacity="1.000000" fill-rule="evenodd"/>
	</g>
</svg>
