<svg width="12.000000" height="12.000000" viewBox="0 0 12 12" fill="none" xmlns="http://www.w3.org/2000/svg" xmlns:xlink="http://www.w3.org/1999/xlink">
	<desc>
			Created with Pixso.
	</desc>
	<defs/>
	<path id="Vector" d="M11 3.25L8 3.25" stroke="#292D32" stroke-opacity="1.000000" stroke-width="1.500000" stroke-linejoin="round" stroke-linecap="round"/>
	<path id="Vector" d="M3 3.25L1 3.25" stroke="#292D32" stroke-opacity="1.000000" stroke-width="1.500000" stroke-linejoin="round" stroke-linecap="round"/>
	<path id="Vector" d="M5 5C4.03 5 3.25 4.21 3.25 3.25C3.25 2.28 4.03 1.5 5 1.5C5.96 1.5 6.75 2.28 6.75 3.25C6.75 4.21 5.96 5 5 5Z" stroke="#292D32" stroke-opacity="1.000000" stroke-width="1.500000" stroke-linejoin="round"/>
	<path id="Vector" d="M11 8.75L9 8.75" stroke="#292D32" stroke-opacity="1.000000" stroke-width="1.500000" stroke-linejoin="round" stroke-linecap="round"/>
	<path id="Vector" d="M4 8.75L1 8.75" stroke="#292D32" stroke-opacity="1.000000" stroke-width="1.500000" stroke-linejoin="round" stroke-linecap="round"/>
	<path id="Vector" d="M7 10.5C6.03 10.5 5.25 9.71 5.25 8.75C5.25 7.78 6.03 7 7 7C7.96 7 8.75 7.78 8.75 8.75C8.75 9.71 7.96 10.5 7 10.5Z" stroke="#292D32" stroke-opacity="1.000000" stroke-width="1.500000" stroke-linejoin="round"/>
	<g opacity="0.000000"/>
</svg>
