<svg width="24.000000" height="24.000000" viewBox="0 0 24 24" fill="none" xmlns="http://www.w3.org/2000/svg" xmlns:xlink="http://www.w3.org/1999/xlink">
	<desc>
			Created with Pixso.
	</desc>
	<defs/>
	<path id="Vector" d="M8.69 19.83C10.55 21.69 13.57 21.69 15.44 19.83L19.83 15.44C21.69 13.58 21.69 10.56 19.83 8.69L15.29 4.17C14.34 3.22 13.03 2.71 11.69 2.78L6.69 3.02C4.69 3.11 3.1 4.7 3 6.69L2.76 11.69C2.7 13.04 3.21 14.35 4.16 15.3L8.69 19.83Z" stroke="#FFFFFF" stroke-opacity="1.000000" stroke-width="1.500000" stroke-linejoin="round"/>
	<g opacity="0.400000">
		<path id="Vector" d="M9.49 12C8.11 12 6.99 10.88 6.99 9.5C6.99 8.11 8.11 7 9.49 7C10.88 7 11.99 8.11 11.99 9.5C11.99 10.88 10.88 12 9.49 12Z" stroke="#FFFFFF" stroke-opacity="1.000000" stroke-width="1.500000"/>
	</g>
	<g opacity="0.000000">
		<path id="Vector" d="M0 0L24 0L24 24L0 24L0 0ZM1 23L1 1L23 1L23 23L1 23Z" fill="#FFFFFF" fill-opacity="1.000000" fill-rule="evenodd"/>
	</g>
</svg>
