<svg width="24.000000" height="24.000000" viewBox="0 0 24 24" fill="none" xmlns="http://www.w3.org/2000/svg" xmlns:xlink="http://www.w3.org/1999/xlink">
	<desc>
			Created with Pixso.
	</desc>
	<defs/>
	<path id="Vector" d="M11.99 3C10.89 3 9.99 3.89 9.99 5C9.99 6.1 10.89 7 11.99 7C13.09 7 13.99 6.1 13.99 5C13.99 3.89 13.09 3 11.99 3Z" fill="#292929" fill-opacity="1.000000" fill-rule="nonzero"/>
	<path id="Vector" d="M11.99 17C10.89 17 9.99 17.9 9.99 19C9.99 20.1 10.89 21 11.99 21C13.09 21 13.99 20.1 13.99 19C13.99 17.9 13.09 17 11.99 17Z" fill="#292929" fill-opacity="1.000000" fill-rule="nonzero"/>
	<path id="Vector" d="M11.99 9.99C10.89 9.99 9.99 10.89 9.99 11.99C9.99 13.09 10.89 13.99 11.99 13.99C13.09 13.99 13.99 13.09 13.99 11.99C13.99 10.89 13.09 9.99 11.99 9.99Z" fill="#292929" fill-opacity="1.000000" fill-rule="nonzero"/>
	<g opacity="0.000000"/>
</svg>
