<svg width="24.000000" height="24.000000" viewBox="0 0 24 24" fill="none" xmlns="http://www.w3.org/2000/svg" xmlns:xlink="http://www.w3.org/1999/xlink">
	<desc>
			Created with Pixso.
	</desc>
	<defs/>
	<path id="Vector" d="M12.63 2.58L9.73 9.31L6.88 9.31C6.2 9.31 5.55 9.45 4.96 9.7L6.71 5.52L6.75 5.42L6.82 5.26C6.84 5.2 6.86 5.14 6.89 5.09C8.2 2.06 9.67 1.37 12.66 2.51L12.63 2.58Z" stroke="#FFFFFF" stroke-opacity="1.000000" stroke-width="1.500000" stroke-linejoin="round"/>
	<path id="Vector" d="M16.64 9.31L9.72 9.31L12.63 2.58L12.66 2.51C12.81 2.56 12.95 2.63 13.1 2.69L15.31 3.62C16.54 4.13 17.4 4.66 17.92 5.3C18.02 5.42 18.1 5.53 18.17 5.66C18.26 5.8 18.33 5.94 18.37 6.09C18.41 6.18 18.44 6.27 18.45 6.35C18.73 7.19 18.57 8.22 18.04 9.51C17.6 9.37 17.12 9.31 16.64 9.31Z" stroke="#FFFFFF" stroke-opacity="1.000000" stroke-width="1.500000" stroke-linejoin="round"/>
	<path id="Vector" d="M21.52 16.14C21.52 16.34 21.51 16.54 21.5 16.74C21.31 20.23 19.36 21.99 15.66 21.99L7.86 21.99C7.62 21.99 7.38 21.97 7.15 21.94C3.97 21.73 2.27 20.03 2.06 16.85C2.03 16.62 2.01 16.38 2.01 16.14L2.01 14.19C2.01 12.18 3.23 10.45 4.97 9.7C5.57 9.45 6.21 9.31 6.89 9.31L16.65 9.31C17.14 9.31 17.62 9.38 18.06 9.51C20.05 10.12 21.52 11.98 21.52 14.19L21.52 16.14Z" stroke="#FFFFFF" stroke-opacity="1.000000" stroke-width="1.500000" stroke-linejoin="round"/>
	<g opacity="0.400000">
		<path id="Vector" d="M4.96 9.7C3.21 10.45 2 12.18 2 14.19L2 11.26C2 8.42 4.02 6.05 6.71 5.52L4.96 9.7Z" stroke="#FFFFFF" stroke-opacity="1.000000" stroke-width="1.500000" stroke-linejoin="round"/>
	</g>
	<g opacity="0.400000">
		<path id="Vector" d="M21.51 14.19C21.51 11.99 20.05 10.12 18.05 9.52C18.57 8.22 18.72 7.2 18.47 6.35C18.45 6.26 18.42 6.17 18.38 6.09C20.24 7.05 21.51 9.02 21.51 11.26L21.51 14.19Z" stroke="#FFFFFF" stroke-opacity="1.000000" stroke-width="1.500000" stroke-linejoin="round"/>
	</g>
	<g opacity="0.000000">
		<path id="Vector" d="M0 0L24 0L24 24L0 24L0 0ZM1 23L1 1L23 1L23 23L1 23Z" fill="#FFFFFF" fill-opacity="1.000000" fill-rule="evenodd"/>
	</g>
</svg>
