<svg width="26.000000" height="26.000000" viewBox="0 0 26 26" fill="none" xmlns="http://www.w3.org/2000/svg" xmlns:xlink="http://www.w3.org/1999/xlink">
	<desc>
			Created with Pixso.
	</desc>
	<defs/>
	<path id="Vector" d="M20.29 23.56L13.29 23.56C12.83 23.56 12.41 23.33 12.16 22.95L9 18.21L6.55 22.4C6.31 22.81 5.89 23.06 5.42 23.07C4.97 23.11 4.51 22.86 4.25 22.46L0.6 16.98C0.3 16.53 0.3 15.93 0.6 15.48L4.58 9.52C4.83 9.14 5.25 8.91 5.7 8.91L11.04 8.91L8.44 4.45C8.21 4.03 8.2 3.51 8.44 3.09C8.68 2.67 9.14 2.41 9.61 2.41L17.02 2.41C17.5 2.41 17.96 2.67 18.19 3.08L25.45 15.52C25.71 15.97 25.7 16.52 25.41 16.95L21.42 22.93C21.16 23.33 20.74 23.56 20.29 23.56ZM13.43 21.93L20.14 21.93L23.96 16.21L16.86 4.06L10.08 4.06L13.87 10.56L16.47 15.02C16.71 15.43 16.72 15.95 16.47 16.38C16.23 16.8 15.78 17.06 15.3 17.06L10.18 17.06L13.43 21.93ZM2.05 16.25L5.37 21.21L7.79 17.06L11.59 10.56L5.86 10.56L2.05 16.25ZM10.62 15.43L14.84 15.43L12.73 11.83L10.62 15.43Z" fill="#FFFFFF" fill-opacity="1.000000" fill-rule="nonzero"/>
	<g opacity="0.000000"/>
</svg>
